<svg xmlns="http://www.w3.org/2000/svg" width="920" height="540" viewBox="0 0 920 540">
<rect width="100%" height="100%" fill="#ffffff"/>
<text x="460.0" y="34" text-anchor="middle" font-family="sans-serif" font-size="21" font-weight="600">dodb groups per second by transaction width</text>
<line x1="92" y1="442.00" x2="690" y2="442.00" stroke="#e5e7eb"/>
<text x="80" y="447.00" text-anchor="end" font-family="sans-serif" font-size="12" fill="#4b5563">64.73</text>
<line x1="92" y1="368.40" x2="690" y2="368.40" stroke="#e5e7eb"/>
<text x="80" y="373.40" text-anchor="end" font-family="sans-serif" font-size="12" fill="#4b5563">201.38</text>
<line x1="92" y1="294.80" x2="690" y2="294.80" stroke="#e5e7eb"/>
<text x="80" y="299.80" text-anchor="end" font-family="sans-serif" font-size="12" fill="#4b5563">338.03</text>
<line x1="92" y1="221.20" x2="690" y2="221.20" stroke="#e5e7eb"/>
<text x="80" y="226.20" text-anchor="end" font-family="sans-serif" font-size="12" fill="#4b5563">474.68</text>
<line x1="92" y1="147.60" x2="690" y2="147.60" stroke="#e5e7eb"/>
<text x="80" y="152.60" text-anchor="end" font-family="sans-serif" font-size="12" fill="#4b5563">611.33</text>
<line x1="92" y1="74.00" x2="690" y2="74.00" stroke="#e5e7eb"/>
<text x="80" y="79.00" text-anchor="end" font-family="sans-serif" font-size="12" fill="#4b5563">747.98</text>
<line x1="92" y1="74" x2="92" y2="442" stroke="#374151"/>
<line x1="92" y1="442" x2="690" y2="442" stroke="#374151"/>
<line x1="92.00" y1="442" x2="92.00" y2="448" stroke="#374151"/>
<text x="92.00" y="466" text-anchor="middle" font-family="sans-serif" font-size="12" fill="#4b5563">1</text>
<line x1="241.50" y1="442" x2="241.50" y2="448" stroke="#374151"/>
<text x="241.50" y="466" text-anchor="middle" font-family="sans-serif" font-size="12" fill="#4b5563">2</text>
<line x1="391.00" y1="442" x2="391.00" y2="448" stroke="#374151"/>
<text x="391.00" y="466" text-anchor="middle" font-family="sans-serif" font-size="12" fill="#4b5563">4</text>
<line x1="540.50" y1="442" x2="540.50" y2="448" stroke="#374151"/>
<text x="540.50" y="466" text-anchor="middle" font-family="sans-serif" font-size="12" fill="#4b5563">8</text>
<line x1="690.00" y1="442" x2="690.00" y2="448" stroke="#374151"/>
<text x="690.00" y="466" text-anchor="middle" font-family="sans-serif" font-size="12" fill="#4b5563">16</text>
<text x="391.0" y="506" text-anchor="middle" font-family="sans-serif" font-size="14">transaction width (log2 scale)</text>
<text x="24" y="258.0" text-anchor="middle" transform="rotate(-90 24 258.0)" font-family="sans-serif" font-size="14">groups per second</text>
<path d="M 92.00 197.82 L 241.50 245.17 L 391.00 302.28 L 540.50 362.04 L 690.00 408.42" fill="none" stroke="#2563eb" stroke-width="2.5"/>
<line x1="92.00" y1="200.45" x2="92.00" y2="195.19" stroke="#2563eb" stroke-width="1.2"/>
<line x1="88.00" y1="200.45" x2="96.00" y2="200.45" stroke="#2563eb"/>
<line x1="88.00" y1="195.19" x2="96.00" y2="195.19" stroke="#2563eb"/>
<circle cx="92.00" cy="197.82" r="4" fill="#2563eb"/>
<line x1="241.50" y1="249.05" x2="241.50" y2="241.29" stroke="#2563eb" stroke-width="1.2"/>
<line x1="237.50" y1="249.05" x2="245.50" y2="249.05" stroke="#2563eb"/>
<line x1="237.50" y1="241.29" x2="245.50" y2="241.29" stroke="#2563eb"/>
<circle cx="241.50" cy="245.17" r="4" fill="#2563eb"/>
<line x1="391.00" y1="304.52" x2="391.00" y2="300.04" stroke="#2563eb" stroke-width="1.2"/>
<line x1="387.00" y1="304.52" x2="395.00" y2="304.52" stroke="#2563eb"/>
<line x1="387.00" y1="300.04" x2="395.00" y2="300.04" stroke="#2563eb"/>
<circle cx="391.00" cy="302.28" r="4" fill="#2563eb"/>
<line x1="540.50" y1="364.57" x2="540.50" y2="359.51" stroke="#2563eb" stroke-width="1.2"/>
<line x1="536.50" y1="364.57" x2="544.50" y2="364.57" stroke="#2563eb"/>
<line x1="536.50" y1="359.51" x2="544.50" y2="359.51" stroke="#2563eb"/>
<circle cx="540.50" cy="362.04" r="4" fill="#2563eb"/>
<line x1="690.00" y1="412.90" x2="690.00" y2="403.94" stroke="#2563eb" stroke-width="1.2"/>
<line x1="686.00" y1="412.90" x2="694.00" y2="412.90" stroke="#2563eb"/>
<line x1="686.00" y1="403.94" x2="694.00" y2="403.94" stroke="#2563eb"/>
<circle cx="690.00" cy="408.42" r="4" fill="#2563eb"/>
<line x1="710" y1="102" x2="734" y2="102" stroke="#2563eb" stroke-width="2.5"/>
<text x="742" y="107" font-family="sans-serif" font-size="12" fill="#374151">XFS-pre median ± SD</text>
<path d="M 92.00 115.89 L 241.50 191.68 L 391.00 281.18 L 540.50 372.09 L 690.00 415.00" fill="none" stroke="#d97706" stroke-width="2.5"/>
<line x1="92.00" y1="120.98" x2="92.00" y2="110.80" stroke="#d97706" stroke-width="1.2"/>
<line x1="88.00" y1="120.98" x2="96.00" y2="120.98" stroke="#d97706"/>
<line x1="88.00" y1="110.80" x2="96.00" y2="110.80" stroke="#d97706"/>
<circle cx="92.00" cy="115.89" r="4" fill="#d97706"/>
<line x1="241.50" y1="193.95" x2="241.50" y2="189.41" stroke="#d97706" stroke-width="1.2"/>
<line x1="237.50" y1="193.95" x2="245.50" y2="193.95" stroke="#d97706"/>
<line x1="237.50" y1="189.41" x2="245.50" y2="189.41" stroke="#d97706"/>
<circle cx="241.50" cy="191.68" r="4" fill="#d97706"/>
<line x1="391.00" y1="282.76" x2="391.00" y2="279.61" stroke="#d97706" stroke-width="1.2"/>
<line x1="387.00" y1="282.76" x2="395.00" y2="282.76" stroke="#d97706"/>
<line x1="387.00" y1="279.61" x2="395.00" y2="279.61" stroke="#d97706"/>
<circle cx="391.00" cy="281.18" r="4" fill="#d97706"/>
<line x1="540.50" y1="374.59" x2="540.50" y2="369.58" stroke="#d97706" stroke-width="1.2"/>
<line x1="536.50" y1="374.59" x2="544.50" y2="374.59" stroke="#d97706"/>
<line x1="536.50" y1="369.58" x2="544.50" y2="369.58" stroke="#d97706"/>
<circle cx="540.50" cy="372.09" r="4" fill="#d97706"/>
<line x1="690.00" y1="417.47" x2="690.00" y2="412.54" stroke="#d97706" stroke-width="1.2"/>
<line x1="686.00" y1="417.47" x2="694.00" y2="417.47" stroke="#d97706"/>
<line x1="686.00" y1="412.54" x2="694.00" y2="412.54" stroke="#d97706"/>
<circle cx="690.00" cy="415.00" r="4" fill="#d97706"/>
<line x1="710" y1="126" x2="734" y2="126" stroke="#d97706" stroke-width="2.5"/>
<text x="742" y="131" font-family="sans-serif" font-size="12" fill="#374151">ZFS median ± SD</text>
<path d="M 92.00 202.07 L 241.50 242.54 L 391.00 301.81 L 540.50 361.03 L 690.00 409.58" fill="none" stroke="#059669" stroke-width="2.5"/>
<line x1="92.00" y1="203.18" x2="92.00" y2="200.96" stroke="#059669" stroke-width="1.2"/>
<line x1="88.00" y1="203.18" x2="96.00" y2="203.18" stroke="#059669"/>
<line x1="88.00" y1="200.96" x2="96.00" y2="200.96" stroke="#059669"/>
<circle cx="92.00" cy="202.07" r="4" fill="#059669"/>
<line x1="241.50" y1="249.91" x2="241.50" y2="235.18" stroke="#059669" stroke-width="1.2"/>
<line x1="237.50" y1="249.91" x2="245.50" y2="249.91" stroke="#059669"/>
<line x1="237.50" y1="235.18" x2="245.50" y2="235.18" stroke="#059669"/>
<circle cx="241.50" cy="242.54" r="4" fill="#059669"/>
<line x1="391.00" y1="305.85" x2="391.00" y2="297.77" stroke="#059669" stroke-width="1.2"/>
<line x1="387.00" y1="305.85" x2="395.00" y2="305.85" stroke="#059669"/>
<line x1="387.00" y1="297.77" x2="395.00" y2="297.77" stroke="#059669"/>
<circle cx="391.00" cy="301.81" r="4" fill="#059669"/>
<line x1="540.50" y1="364.36" x2="540.50" y2="357.71" stroke="#059669" stroke-width="1.2"/>
<line x1="536.50" y1="364.36" x2="544.50" y2="364.36" stroke="#059669"/>
<line x1="536.50" y1="357.71" x2="544.50" y2="357.71" stroke="#059669"/>
<circle cx="540.50" cy="361.03" r="4" fill="#059669"/>
<line x1="690.00" y1="411.39" x2="690.00" y2="407.76" stroke="#059669" stroke-width="1.2"/>
<line x1="686.00" y1="411.39" x2="694.00" y2="411.39" stroke="#059669"/>
<line x1="686.00" y1="407.76" x2="694.00" y2="407.76" stroke="#059669"/>
<circle cx="690.00" cy="409.58" r="4" fill="#059669"/>
<line x1="710" y1="150" x2="734" y2="150" stroke="#059669" stroke-width="2.5"/>
<text x="742" y="155" font-family="sans-serif" font-size="12" fill="#374151">XFS-post median ± SD</text>
</svg>
