<svg xmlns="http://www.w3.org/2000/svg" width="920" height="540" viewBox="0 0 920 540">
<rect width="100%" height="100%" fill="#ffffff"/>
<text x="460.0" y="34" text-anchor="middle" font-family="sans-serif" font-size="21" font-weight="600">dodb throughput by transaction width</text>
<line x1="92" y1="442.00" x2="690" y2="442.00" stroke="#e5e7eb"/>
<text x="80" y="447.00" text-anchor="end" font-family="sans-serif" font-size="12" fill="#4b5563">2,874.80</text>
<line x1="92" y1="368.40" x2="690" y2="368.40" stroke="#e5e7eb"/>
<text x="80" y="373.40" text-anchor="end" font-family="sans-serif" font-size="12" fill="#4b5563">7,414.22</text>
<line x1="92" y1="294.80" x2="690" y2="294.80" stroke="#e5e7eb"/>
<text x="80" y="299.80" text-anchor="end" font-family="sans-serif" font-size="12" fill="#4b5563">11,953.65</text>
<line x1="92" y1="221.20" x2="690" y2="221.20" stroke="#e5e7eb"/>
<text x="80" y="226.20" text-anchor="end" font-family="sans-serif" font-size="12" fill="#4b5563">16,493.07</text>
<line x1="92" y1="147.60" x2="690" y2="147.60" stroke="#e5e7eb"/>
<text x="80" y="152.60" text-anchor="end" font-family="sans-serif" font-size="12" fill="#4b5563">21,032.50</text>
<line x1="92" y1="74.00" x2="690" y2="74.00" stroke="#e5e7eb"/>
<text x="80" y="79.00" text-anchor="end" font-family="sans-serif" font-size="12" fill="#4b5563">25,571.93</text>
<line x1="92" y1="74" x2="92" y2="442" stroke="#374151"/>
<line x1="92" y1="442" x2="690" y2="442" stroke="#374151"/>
<line x1="92.00" y1="442" x2="92.00" y2="448" stroke="#374151"/>
<text x="92.00" y="466" text-anchor="middle" font-family="sans-serif" font-size="12" fill="#4b5563">1</text>
<line x1="241.50" y1="442" x2="241.50" y2="448" stroke="#374151"/>
<text x="241.50" y="466" text-anchor="middle" font-family="sans-serif" font-size="12" fill="#4b5563">2</text>
<line x1="391.00" y1="442" x2="391.00" y2="448" stroke="#374151"/>
<text x="391.00" y="466" text-anchor="middle" font-family="sans-serif" font-size="12" fill="#4b5563">4</text>
<line x1="540.50" y1="442" x2="540.50" y2="448" stroke="#374151"/>
<text x="540.50" y="466" text-anchor="middle" font-family="sans-serif" font-size="12" fill="#4b5563">8</text>
<line x1="690.00" y1="442" x2="690.00" y2="448" stroke="#374151"/>
<text x="690.00" y="466" text-anchor="middle" font-family="sans-serif" font-size="12" fill="#4b5563">16</text>
<text x="391.0" y="506" text-anchor="middle" font-family="sans-serif" font-size="14">transaction width (log2 scale)</text>
<text x="24" y="258.0" text-anchor="middle" transform="rotate(-90 24 258.0)" font-family="sans-serif" font-size="14">transactions per second</text>
<path d="M 92.00 219.97 L 241.50 262.78 L 391.00 306.94 L 540.50 358.14 L 690.00 407.33" fill="none" stroke="#2563eb" stroke-width="2.5"/>
<line x1="92.00" y1="222.04" x2="92.00" y2="217.91" stroke="#2563eb" stroke-width="1.2"/>
<line x1="88.00" y1="222.04" x2="96.00" y2="222.04" stroke="#2563eb"/>
<line x1="88.00" y1="217.91" x2="96.00" y2="217.91" stroke="#2563eb"/>
<circle cx="92.00" cy="219.97" r="4" fill="#2563eb"/>
<line x1="241.50" y1="264.62" x2="241.50" y2="260.95" stroke="#2563eb" stroke-width="1.2"/>
<line x1="237.50" y1="264.62" x2="245.50" y2="264.62" stroke="#2563eb"/>
<line x1="237.50" y1="260.95" x2="245.50" y2="260.95" stroke="#2563eb"/>
<circle cx="241.50" cy="262.78" r="4" fill="#2563eb"/>
<line x1="391.00" y1="308.40" x2="391.00" y2="305.48" stroke="#2563eb" stroke-width="1.2"/>
<line x1="387.00" y1="308.40" x2="395.00" y2="308.40" stroke="#2563eb"/>
<line x1="387.00" y1="305.48" x2="395.00" y2="305.48" stroke="#2563eb"/>
<circle cx="391.00" cy="306.94" r="4" fill="#2563eb"/>
<line x1="540.50" y1="361.03" x2="540.50" y2="355.25" stroke="#2563eb" stroke-width="1.2"/>
<line x1="536.50" y1="361.03" x2="544.50" y2="361.03" stroke="#2563eb"/>
<line x1="536.50" y1="355.25" x2="544.50" y2="355.25" stroke="#2563eb"/>
<circle cx="540.50" cy="358.14" r="4" fill="#2563eb"/>
<line x1="690.00" y1="409.52" x2="690.00" y2="405.15" stroke="#2563eb" stroke-width="1.2"/>
<line x1="686.00" y1="409.52" x2="694.00" y2="409.52" stroke="#2563eb"/>
<line x1="686.00" y1="405.15" x2="694.00" y2="405.15" stroke="#2563eb"/>
<circle cx="690.00" cy="407.33" r="4" fill="#2563eb"/>
<line x1="710" y1="102" x2="734" y2="102" stroke="#2563eb" stroke-width="2.5"/>
<text x="742" y="107" font-family="sans-serif" font-size="12" fill="#374151">XFS-pre median ± SD</text>
<path d="M 92.00 115.92 L 241.50 189.84 L 391.00 272.20 L 540.50 373.73 L 690.00 415.44" fill="none" stroke="#d97706" stroke-width="2.5"/>
<line x1="92.00" y1="121.04" x2="92.00" y2="110.80" stroke="#d97706" stroke-width="1.2"/>
<line x1="88.00" y1="121.04" x2="96.00" y2="121.04" stroke="#d97706"/>
<line x1="88.00" y1="110.80" x2="96.00" y2="110.80" stroke="#d97706"/>
<circle cx="92.00" cy="115.92" r="4" fill="#d97706"/>
<line x1="241.50" y1="192.91" x2="241.50" y2="186.78" stroke="#d97706" stroke-width="1.2"/>
<line x1="237.50" y1="192.91" x2="245.50" y2="192.91" stroke="#d97706"/>
<line x1="237.50" y1="186.78" x2="245.50" y2="186.78" stroke="#d97706"/>
<circle cx="241.50" cy="189.84" r="4" fill="#d97706"/>
<line x1="391.00" y1="273.81" x2="391.00" y2="270.59" stroke="#d97706" stroke-width="1.2"/>
<line x1="387.00" y1="273.81" x2="395.00" y2="273.81" stroke="#d97706"/>
<line x1="387.00" y1="270.59" x2="395.00" y2="270.59" stroke="#d97706"/>
<circle cx="391.00" cy="272.20" r="4" fill="#d97706"/>
<line x1="540.50" y1="375.47" x2="540.50" y2="371.99" stroke="#d97706" stroke-width="1.2"/>
<line x1="536.50" y1="375.47" x2="544.50" y2="375.47" stroke="#d97706"/>
<line x1="536.50" y1="371.99" x2="544.50" y2="371.99" stroke="#d97706"/>
<circle cx="540.50" cy="373.73" r="4" fill="#d97706"/>
<line x1="690.00" y1="417.47" x2="690.00" y2="413.40" stroke="#d97706" stroke-width="1.2"/>
<line x1="686.00" y1="417.47" x2="694.00" y2="417.47" stroke="#d97706"/>
<line x1="686.00" y1="413.40" x2="694.00" y2="413.40" stroke="#d97706"/>
<circle cx="690.00" cy="415.44" r="4" fill="#d97706"/>
<line x1="710" y1="126" x2="734" y2="126" stroke="#d97706" stroke-width="2.5"/>
<text x="742" y="131" font-family="sans-serif" font-size="12" fill="#374151">ZFS median ± SD</text>
<path d="M 92.00 221.76 L 241.50 260.45 L 391.00 305.60 L 540.50 354.29 L 690.00 407.32" fill="none" stroke="#059669" stroke-width="2.5"/>
<line x1="92.00" y1="224.02" x2="92.00" y2="219.51" stroke="#059669" stroke-width="1.2"/>
<line x1="88.00" y1="224.02" x2="96.00" y2="224.02" stroke="#059669"/>
<line x1="88.00" y1="219.51" x2="96.00" y2="219.51" stroke="#059669"/>
<circle cx="92.00" cy="221.76" r="4" fill="#059669"/>
<line x1="241.50" y1="263.32" x2="241.50" y2="257.58" stroke="#059669" stroke-width="1.2"/>
<line x1="237.50" y1="263.32" x2="245.50" y2="263.32" stroke="#059669"/>
<line x1="237.50" y1="257.58" x2="245.50" y2="257.58" stroke="#059669"/>
<circle cx="241.50" cy="260.45" r="4" fill="#059669"/>
<line x1="391.00" y1="307.45" x2="391.00" y2="303.75" stroke="#059669" stroke-width="1.2"/>
<line x1="387.00" y1="307.45" x2="395.00" y2="307.45" stroke="#059669"/>
<line x1="387.00" y1="303.75" x2="395.00" y2="303.75" stroke="#059669"/>
<circle cx="391.00" cy="305.60" r="4" fill="#059669"/>
<line x1="540.50" y1="357.33" x2="540.50" y2="351.25" stroke="#059669" stroke-width="1.2"/>
<line x1="536.50" y1="357.33" x2="544.50" y2="357.33" stroke="#059669"/>
<line x1="536.50" y1="351.25" x2="544.50" y2="351.25" stroke="#059669"/>
<circle cx="540.50" cy="354.29" r="4" fill="#059669"/>
<line x1="690.00" y1="408.44" x2="690.00" y2="406.19" stroke="#059669" stroke-width="1.2"/>
<line x1="686.00" y1="408.44" x2="694.00" y2="408.44" stroke="#059669"/>
<line x1="686.00" y1="406.19" x2="694.00" y2="406.19" stroke="#059669"/>
<circle cx="690.00" cy="407.32" r="4" fill="#059669"/>
<line x1="710" y1="150" x2="734" y2="150" stroke="#059669" stroke-width="2.5"/>
<text x="742" y="155" font-family="sans-serif" font-size="12" fill="#374151">XFS-post median ± SD</text>
</svg>
