<svg xmlns="http://www.w3.org/2000/svg" width="920" height="540" viewBox="0 0 920 540">
<rect width="100%" height="100%" fill="#ffffff"/>
<text x="460.0" y="34" text-anchor="middle" font-family="sans-serif" font-size="21" font-weight="600">fdatasync mean latency</text>
<line x1="92" y1="442.00" x2="690" y2="442.00" stroke="#e5e7eb"/>
<text x="80" y="447.00" text-anchor="end" font-family="sans-serif" font-size="12" fill="#4b5563">0.00</text>
<line x1="92" y1="368.40" x2="690" y2="368.40" stroke="#e5e7eb"/>
<text x="80" y="373.40" text-anchor="end" font-family="sans-serif" font-size="12" fill="#4b5563">2.23</text>
<line x1="92" y1="294.80" x2="690" y2="294.80" stroke="#e5e7eb"/>
<text x="80" y="299.80" text-anchor="end" font-family="sans-serif" font-size="12" fill="#4b5563">4.46</text>
<line x1="92" y1="221.20" x2="690" y2="221.20" stroke="#e5e7eb"/>
<text x="80" y="226.20" text-anchor="end" font-family="sans-serif" font-size="12" fill="#4b5563">6.69</text>
<line x1="92" y1="147.60" x2="690" y2="147.60" stroke="#e5e7eb"/>
<text x="80" y="152.60" text-anchor="end" font-family="sans-serif" font-size="12" fill="#4b5563">8.92</text>
<line x1="92" y1="74.00" x2="690" y2="74.00" stroke="#e5e7eb"/>
<text x="80" y="79.00" text-anchor="end" font-family="sans-serif" font-size="12" fill="#4b5563">11.15</text>
<line x1="92" y1="74" x2="92" y2="442" stroke="#374151"/>
<line x1="92" y1="442" x2="690" y2="442" stroke="#374151"/>
<line x1="92.00" y1="442" x2="92.00" y2="448" stroke="#374151"/>
<text x="92.00" y="466" text-anchor="middle" font-family="sans-serif" font-size="12" fill="#4b5563">4096</text>
<line x1="241.50" y1="442" x2="241.50" y2="448" stroke="#374151"/>
<text x="241.50" y="466" text-anchor="middle" font-family="sans-serif" font-size="12" fill="#4b5563">16384</text>
<line x1="391.00" y1="442" x2="391.00" y2="448" stroke="#374151"/>
<text x="391.00" y="466" text-anchor="middle" font-family="sans-serif" font-size="12" fill="#4b5563">65536</text>
<line x1="540.50" y1="442" x2="540.50" y2="448" stroke="#374151"/>
<text x="540.50" y="466" text-anchor="middle" font-family="sans-serif" font-size="12" fill="#4b5563">262144</text>
<line x1="690.00" y1="442" x2="690.00" y2="448" stroke="#374151"/>
<text x="690.00" y="466" text-anchor="middle" font-family="sans-serif" font-size="12" fill="#4b5563">1048576</text>
<text x="391.0" y="506" text-anchor="middle" font-family="sans-serif" font-size="14">sync payload size (bytes, log2 scale)</text>
<text x="24" y="258.0" text-anchor="middle" transform="rotate(-90 24 258.0)" font-family="sans-serif" font-size="14">milliseconds</text>
<path d="M 92.00 418.33 L 241.50 418.84 L 391.00 411.52 L 540.50 360.00 L 690.00 121.06" fill="none" stroke="#2563eb" stroke-width="2.5"/>
<line x1="92.00" y1="426.74" x2="92.00" y2="409.92" stroke="#2563eb" stroke-width="1.2"/>
<line x1="88.00" y1="426.74" x2="96.00" y2="426.74" stroke="#2563eb"/>
<line x1="88.00" y1="409.92" x2="96.00" y2="409.92" stroke="#2563eb"/>
<circle cx="92.00" cy="418.33" r="4" fill="#2563eb"/>
<line x1="241.50" y1="427.99" x2="241.50" y2="409.70" stroke="#2563eb" stroke-width="1.2"/>
<line x1="237.50" y1="427.99" x2="245.50" y2="427.99" stroke="#2563eb"/>
<line x1="237.50" y1="409.70" x2="245.50" y2="409.70" stroke="#2563eb"/>
<circle cx="241.50" cy="418.84" r="4" fill="#2563eb"/>
<line x1="391.00" y1="413.50" x2="391.00" y2="409.54" stroke="#2563eb" stroke-width="1.2"/>
<line x1="387.00" y1="413.50" x2="395.00" y2="413.50" stroke="#2563eb"/>
<line x1="387.00" y1="409.54" x2="395.00" y2="409.54" stroke="#2563eb"/>
<circle cx="391.00" cy="411.52" r="4" fill="#2563eb"/>
<line x1="540.50" y1="360.79" x2="540.50" y2="359.22" stroke="#2563eb" stroke-width="1.2"/>
<line x1="536.50" y1="360.79" x2="544.50" y2="360.79" stroke="#2563eb"/>
<line x1="536.50" y1="359.22" x2="544.50" y2="359.22" stroke="#2563eb"/>
<circle cx="540.50" cy="360.00" r="4" fill="#2563eb"/>
<line x1="690.00" y1="124.24" x2="690.00" y2="117.88" stroke="#2563eb" stroke-width="1.2"/>
<line x1="686.00" y1="124.24" x2="694.00" y2="124.24" stroke="#2563eb"/>
<line x1="686.00" y1="117.88" x2="694.00" y2="117.88" stroke="#2563eb"/>
<circle cx="690.00" cy="121.06" r="4" fill="#2563eb"/>
<line x1="710" y1="102" x2="734" y2="102" stroke="#2563eb" stroke-width="2.5"/>
<text x="742" y="107" font-family="sans-serif" font-size="12" fill="#374151">XFS-pre median ± SD</text>
<path d="M 92.00 416.67 L 241.50 412.49 L 391.00 368.58 L 540.50 319.16 L 690.00 115.75" fill="none" stroke="#d97706" stroke-width="2.5"/>
<line x1="92.00" y1="416.85" x2="92.00" y2="416.50" stroke="#d97706" stroke-width="1.2"/>
<line x1="88.00" y1="416.85" x2="96.00" y2="416.85" stroke="#d97706"/>
<line x1="88.00" y1="416.50" x2="96.00" y2="416.50" stroke="#d97706"/>
<circle cx="92.00" cy="416.67" r="4" fill="#d97706"/>
<line x1="241.50" y1="412.85" x2="241.50" y2="412.13" stroke="#d97706" stroke-width="1.2"/>
<line x1="237.50" y1="412.85" x2="245.50" y2="412.85" stroke="#d97706"/>
<line x1="237.50" y1="412.13" x2="245.50" y2="412.13" stroke="#d97706"/>
<circle cx="241.50" cy="412.49" r="4" fill="#d97706"/>
<line x1="391.00" y1="369.09" x2="391.00" y2="368.07" stroke="#d97706" stroke-width="1.2"/>
<line x1="387.00" y1="369.09" x2="395.00" y2="369.09" stroke="#d97706"/>
<line x1="387.00" y1="368.07" x2="395.00" y2="368.07" stroke="#d97706"/>
<circle cx="391.00" cy="368.58" r="4" fill="#d97706"/>
<line x1="540.50" y1="320.08" x2="540.50" y2="318.24" stroke="#d97706" stroke-width="1.2"/>
<line x1="536.50" y1="320.08" x2="544.50" y2="320.08" stroke="#d97706"/>
<line x1="536.50" y1="318.24" x2="544.50" y2="318.24" stroke="#d97706"/>
<circle cx="540.50" cy="319.16" r="4" fill="#d97706"/>
<line x1="690.00" y1="119.56" x2="690.00" y2="111.93" stroke="#d97706" stroke-width="1.2"/>
<line x1="686.00" y1="119.56" x2="694.00" y2="119.56" stroke="#d97706"/>
<line x1="686.00" y1="111.93" x2="694.00" y2="111.93" stroke="#d97706"/>
<circle cx="690.00" cy="115.75" r="4" fill="#d97706"/>
<line x1="710" y1="126" x2="734" y2="126" stroke="#d97706" stroke-width="2.5"/>
<text x="742" y="131" font-family="sans-serif" font-size="12" fill="#374151">ZFS median ± SD</text>
<path d="M 92.00 418.78 L 241.50 418.59 L 391.00 411.20 L 540.50 360.16 L 690.00 113.87" fill="none" stroke="#059669" stroke-width="2.5"/>
<line x1="92.00" y1="427.13" x2="92.00" y2="410.43" stroke="#059669" stroke-width="1.2"/>
<line x1="88.00" y1="427.13" x2="96.00" y2="427.13" stroke="#059669"/>
<line x1="88.00" y1="410.43" x2="96.00" y2="410.43" stroke="#059669"/>
<circle cx="92.00" cy="418.78" r="4" fill="#059669"/>
<line x1="241.50" y1="427.88" x2="241.50" y2="409.30" stroke="#059669" stroke-width="1.2"/>
<line x1="237.50" y1="427.88" x2="245.50" y2="427.88" stroke="#059669"/>
<line x1="237.50" y1="409.30" x2="245.50" y2="409.30" stroke="#059669"/>
<circle cx="241.50" cy="418.59" r="4" fill="#059669"/>
<line x1="391.00" y1="413.18" x2="391.00" y2="409.22" stroke="#059669" stroke-width="1.2"/>
<line x1="387.00" y1="413.18" x2="395.00" y2="413.18" stroke="#059669"/>
<line x1="387.00" y1="409.22" x2="395.00" y2="409.22" stroke="#059669"/>
<circle cx="391.00" cy="411.20" r="4" fill="#059669"/>
<line x1="540.50" y1="360.84" x2="540.50" y2="359.47" stroke="#059669" stroke-width="1.2"/>
<line x1="536.50" y1="360.84" x2="544.50" y2="360.84" stroke="#059669"/>
<line x1="536.50" y1="359.47" x2="544.50" y2="359.47" stroke="#059669"/>
<circle cx="540.50" cy="360.16" r="4" fill="#059669"/>
<line x1="690.00" y1="114.35" x2="690.00" y2="113.39" stroke="#059669" stroke-width="1.2"/>
<line x1="686.00" y1="114.35" x2="694.00" y2="114.35" stroke="#059669"/>
<line x1="686.00" y1="113.39" x2="694.00" y2="113.39" stroke="#059669"/>
<circle cx="690.00" cy="113.87" r="4" fill="#059669"/>
<line x1="710" y1="150" x2="734" y2="150" stroke="#059669" stroke-width="2.5"/>
<text x="742" y="155" font-family="sans-serif" font-size="12" fill="#374151">XFS-post median ± SD</text>
</svg>
